<svg id="Capa_1" data-name="Capa 1" xmlns="http://www.w3.org/2000/svg" xmlns:xlink="http://www.w3.org/1999/xlink" viewBox="0 0 260.4 391.95"><defs><style>.cls-1{font-size:77.22px;}.cls-1,.cls-3{fill:#12192c;font-family:Titillium-Bold, Titillium Bold;font-weight:700;}.cls-2{letter-spacing:-0.02em;}.cls-3{font-size:34.62px;}.cls-4{letter-spacing:0em;}.cls-5{fill:url(#New_Gradient_Swatch_6);}</style><linearGradient id="New_Gradient_Swatch_6" x1="-274.96" y1="96.93" x2="-14.57" y2="96.93" gradientTransform="translate(403.88 257.35)" gradientUnits="userSpaceOnUse"><stop offset="0" stop-color="#6fc7da"/><stop offset="1" stop-color="#203c7b"/></linearGradient></defs><text class="cls-1" transform="translate(6.27 346.55)"><tspan class="cls-2">C</tspan><tspan x="43.16" y="0">OMBE</tspan></text><text class="cls-3" transform="translate(23.66 383.3)">FORE<tspan class="cls-4" x="76.36" y="0">C</tspan><tspan x="96.58" y="0">AST AI</tspan></text><path class="cls-5" d="M319.87,366.78a12.65,12.65,0,1,1-17.89,0A12.65,12.65,0,0,1,319.87,366.78Zm-69.13-91.06h0c16.1,5.33,17.06,13.48,14,22.71h0a15.22,15.22,0,1,0,22-8.4h0c-8.11-4.66-12.77-11-5.61-24.6A26.53,26.53,0,0,0,259.18,224h-.13a26.52,26.52,0,0,0-8.31,51.7Zm100.42,24a26.52,26.52,0,1,0-37.51,0A26.51,26.51,0,0,0,351.16,299.68ZM320,404.23c-15.66,8.29-22.52,3.06-27.31-5.9a14.72,14.72,0,0,0-2.73-3.72,15.2,15.2,0,1,0-6.37,25.31c9.75-2.91,18.32-1.74,23.42,15.21a26.52,26.52,0,1,0,13-30.9Zm42.84-76.47a26.53,26.53,0,1,0,26.53,26.53A26.53,26.53,0,0,0,362.79,327.76ZM198.28,304.35c15.66-8.3,22.53-3.07,27.31,5.89a15.21,15.21,0,1,0,9.1-21.59c-9.75,2.91-18.32,1.74-23.42-15.2a26.52,26.52,0,1,0-13,30.9Zm.09,19.55a12.65,12.65,0,1,0,17.88,0A12.65,12.65,0,0,0,198.37,323.9ZM182,354.29a26.52,26.52,0,1,0-26.52,26.52A26.52,26.52,0,0,0,182,354.29ZM245.33,377a26.4,26.4,0,0,0,12.94,3.82h.13c.52,0,1,0,1.55,0,.36,0,.71,0,1.07-.06s.65,0,1-.08c.66-.07,1.33-.17,2-.29l.17,0a26.37,26.37,0,0,0,20.76-19.74c4.85-13.62,12.21-14.56,20.62-11.89h0a15.2,15.2,0,1,0-6.16-25.24,15,15,0,0,0-2.49,3.29v0c-4.43,7.84-10.62,12.16-24,4.92A26.37,26.37,0,0,0,260,327.8h-.13c-.52,0-1,0-1.55,0-.35,0-.71,0-1.06.05l-1,.08c-.67.07-1.34.17-2,.29l-.17,0A26.37,26.37,0,0,0,233.31,348c-4.85,13.62-12.21,14.56-20.62,11.89h0a15.22,15.22,0,1,0,8.64,22h0C225.77,374,232,369.71,245.33,377Zm22.17,55.9h0c-16.09-5.33-17-13.48-14-22.71h0a15.23,15.23,0,1,0-22,8.39h0c8.1,4.66,12.76,11.06,5.6,24.6a26.53,26.53,0,0,0,22,41.41h.13a26.52,26.52,0,0,0,8.32-51.7Zm-100.43-24a26.52,26.52,0,1,0,37.51,0A26.52,26.52,0,0,0,167.07,408.89Z" transform="translate(-128.92 -224.02)"/></svg>