<svg id="Capa_1" data-name="Capa 1" xmlns="http://www.w3.org/2000/svg" xmlns:xlink="http://www.w3.org/1999/xlink" viewBox="0 0 260.4 260.53"><defs><style>.cls-1{fill:url(#New_Gradient_Swatch_6);}</style><linearGradient id="New_Gradient_Swatch_6" x1="-251.08" y1="117.12" x2="9.32" y2="117.12" gradientTransform="translate(403.88 257.35)" gradientUnits="userSpaceOnUse"><stop offset="0" stop-color="#6fc7da"/><stop offset="1" stop-color="#203c7b"/></linearGradient></defs><path class="cls-1" d="M343.76,387a12.65,12.65,0,1,1-17.89,0A12.65,12.65,0,0,1,343.76,387Zm-69.14-91.06h0c16.09,5.33,17.06,13.48,14,22.71h0a15.22,15.22,0,1,0,22-8.4h0c-8.11-4.66-12.77-11.05-5.61-24.6a26.53,26.53,0,0,0-21.95-41.41h-.13a26.52,26.52,0,0,0-8.32,51.7Zm100.43,24a26.52,26.52,0,1,0-37.51,0A26.51,26.51,0,0,0,375.05,319.87ZM343.84,424.42c-15.66,8.29-22.52,3.06-27.31-5.9a14.72,14.72,0,0,0-2.73-3.72,15.2,15.2,0,1,0-6.37,25.31c9.75-2.91,18.32-1.74,23.42,15.21a26.52,26.52,0,1,0,13-30.9ZM386.68,348a26.53,26.53,0,1,0,26.53,26.52A26.52,26.52,0,0,0,386.68,348ZM222.17,324.53c15.66-8.29,22.52-3.06,27.31,5.9a15.21,15.21,0,1,0,9.1-21.59c-9.75,2.91-18.32,1.74-23.42-15.21a26.52,26.52,0,1,0-13,30.9Zm.08,19.56a12.65,12.65,0,1,0,17.89,0A12.67,12.67,0,0,0,222.25,344.09Zm-16.4,30.38A26.52,26.52,0,1,0,179.33,401,26.52,26.52,0,0,0,205.85,374.47Zm63.37,22.67A26.4,26.4,0,0,0,282.16,401h.13c.52,0,1,0,1.55,0,.35,0,.71,0,1.06-.05l1-.08c.66-.07,1.33-.17,2-.29l.17,0a26.37,26.37,0,0,0,20.76-19.74c4.85-13.62,12.21-14.56,20.62-11.89h0a15.2,15.2,0,1,0-8.64-22h0c-4.43,7.83-10.62,12.16-24,4.92A26.4,26.4,0,0,0,283.85,348h-.13c-.52,0-1,0-1.55,0-.35,0-.71,0-1.06.05l-1,.08c-.67.07-1.34.17-2,.29l-.17,0a26.37,26.37,0,0,0-20.76,19.74c-4.85,13.62-12.21,14.56-20.62,11.89h0a15.2,15.2,0,1,0,6.16,25.24,15.48,15.48,0,0,0,2.48-3.28h0C249.66,394.23,255.85,389.9,269.22,397.14ZM291.39,453h0c-16.09-5.33-17-13.48-14-22.71h0a15.22,15.22,0,1,0-22,8.4h0c8.11,4.66,12.77,11,5.61,24.6a26.53,26.53,0,0,0,21.95,41.41h.13a26.52,26.52,0,0,0,8.32-51.7ZM191,429.08a26.52,26.52,0,1,0,37.51,0A26.52,26.52,0,0,0,191,429.08Z" transform="translate(-152.81 -244.21)"/></svg>