<svg id="Capa_1" data-name="Capa 1" xmlns="http://www.w3.org/2000/svg" viewBox="0 0 595.28 841.89"><defs><style>.cls-1{font-size:109.87px;fill:#12192c;}.cls-1,.cls-3{font-family:Titillium-Bold, Titillium Bold;font-weight:700;}.cls-2{letter-spacing:-0.02em;}.cls-3{font-size:49.25px;}.cls-3,.cls-7{fill:#3e2155;}.cls-4{letter-spacing:0em;}.cls-5{letter-spacing:-0.04em;}.cls-6{fill:#652e81;}</style></defs><text class="cls-1" transform="translate(104.65 703.81) scale(1.17 1)"><tspan class="cls-2">C</tspan><tspan x="61.42" y="0">OMBE</tspan></text><text class="cls-3" transform="translate(168.66 756.15) scale(1.17 1)"><tspan class="cls-4">C</tspan><tspan x="28.76" y="0">ASHF</tspan><tspan class="cls-5" x="139.29" y="0">L</tspan><tspan x="160.62" y="0">OW</tspan></text><path class="cls-6" d="M183.64,406.52c-21.94,31.4-34.8,4.49-57.27,10C94.17,424.35,108,466,140.29,458.18,155.72,454.41,160.21,441,183.64,406.52Z"/><path class="cls-7" d="M222.16,444.52c41.24-10.06,23.47-63.46-17.82-53.38-18.32,4.47-23.53,19.55-49.06,57.15C177.38,418.11,194.74,451.21,222.16,444.52Z"/><path class="cls-6" d="M473.22,292.12c5-18.32-7.73-36.84-29.15-41.67-52.42-11.82-73,56-20.57,67.59,2.76.61,67.24,7.88,70.06,8.2C477.47,322.68,467.41,314.82,473.22,292.12Z"/><path class="cls-7" d="M443.16,320.5c6.55,1.26,12.52,3.48,16.56,8,8.86,10,2.55,15.91,5.71,25.38,9.19,27.54,57.95,15.68,48.75-11.89C507.83,323,482.34,325,443.16,320.5Z"/><path class="cls-6" d="M420.29,466.93c2.7,29.63-2,75.07,36.09,65.77,13.46-3.29,21.26-15.28,17.42-26.79C464.47,478,424.41,503.42,420.29,466.93Z"/><path class="cls-7" d="M415.39,444.78c-7.58-11-22.92-16-36.85-12.56C346.83,440,347.26,479,379.77,485.4c25.13,4.93,40.63-3.53,44.68,27.27C423.66,504,420.56,452.27,415.39,444.78Z"/><path class="cls-6" d="M369.55,249.23c24.52-13.85,6.7-45.38-20.69-38.69-13.46,3.28-21.26,15.28-17.42,26.79,2.15,6.43,5.48,7.41,7.7,15.89,4.34,16.58-10.53,20.94-24.75,31.24C314.41,284.45,369.55,249.24,369.55,249.23Z"/><path class="cls-7" d="M303.47,303.14c-3,47.06,88.34,31.92,59.24-14.41-14.7-18.53-9.59-29.57,6.83-39.49C322.05,279.56,304.63,285,303.47,303.14Z"/><path class="cls-6" d="M206.36,335.43c11.77,35.27,74.21,20.08,62.42-15.24-2.93-8.79-9.4-13.26-7.06-23.16,1.95-8.19,11.23-13.93,19.78-18C228.71,301.27,197.24,308.11,206.36,335.43Z"/><path class="cls-7" d="M272.37,215.23c-21.81-4.92-44.15,6.21-49.9,24.86-9.37,30.37,34.66,40.55-1.72,64.53L281.5,279C315.12,263.16,306.6,223,272.37,215.23Z"/><path class="cls-6" d="M315.94,474.71c-6.54-19.58-34.85-26.74-52.71-13.09-8.2,6.27-9.68,14.34-20.75,18.24-11.57,4.08-24.38-2.92-35.8-7.64L270,506.88C295.59,518.11,323.64,497.81,315.94,474.71Z"/><path class="cls-7" d="M270,506.88c-2.61-1.43-64.21-35.54-67.21-36.22-52.17-11.75-73.07,55.75-20.83,67.53C236.37,550.46,222.36,486.76,270,506.88Z"/><path class="cls-6" d="M129.94,386.44c35.13,7.93,64.16-24.54,45.41-51.75-14.83-21.11-7.14-31.42,7.58-39.47-53.07,23.56-69.49,27.43-78.5,41C92,355,103.72,380.53,129.94,386.44Z"/><path class="cls-7" d="M163.51,256A25,25,0,0,0,148,266.87c-6.33,10.47-1,14.54,1.54,25.09,4.43,18.12-11.05,22.38-29,31l62.44-27.72C209.2,282.17,191.54,249.14,163.51,256Z"/><path class="cls-6" d="M400.91,345.4c-31.48,7.69-31.46,46.42.91,53.2,22.23,4.66,36.9-.75,39.55,31.37v-62.1C440.27,352.61,420.46,340.63,400.91,345.4Z"/><path class="cls-7" d="M441.36,367.87c0,52.23-8.67,89.32,29.6,97.95,35.49,8,64.07-25,45.47-51.67C491.65,378.68,445.05,418.32,441.36,367.87Z"/><path class="cls-6" d="M329.83,517c-21.09,19-16.95,33.61-51.16,21.36,57.65,32,55,30.41,55,30.41C356.88,584,390.55,574,398,550,408.54,515.63,358.74,491,329.83,517Z"/><path class="cls-7" d="M244.76,564c5.16,15.46,28.71,22.64,44.53,7.19,10-11.22,22-15.92,42.57-3.32l-53.19-29.51C257.69,530.86,239.27,547.56,244.76,564Z"/><path class="cls-7" d="M349,381.18c8,15.64-.34,33.87-18.63,40.71s-39.6-.28-47.61-15.92.34-33.87,18.63-40.72S341,365.54,349,381.18Z"/></svg>