<svg id="Capa_1" data-name="Capa 1" xmlns="http://www.w3.org/2000/svg" viewBox="0 0 435.94 645.17"><defs><style>.cls-1{font-size:127.35px;fill:#12192c;letter-spacing:-0.02em;}.cls-1,.cls-3{font-family:Titillium-Bold, Titillium Bold;font-weight:700;}.cls-2{letter-spacing:0em;}.cls-3{font-size:57.09px;}.cls-3,.cls-6{fill:#e13f13;}.cls-4{fill:#ec8802;}.cls-5{fill:#ea571a;}</style></defs><text class="cls-1" transform="translate(13.58 570.16)">C<tspan class="cls-2" x="71.18" y="0">OMBE</tspan></text><text class="cls-3" transform="translate(106.59 630.9)">FINANCE</text><path class="cls-4" d="M484.14,272.06a41.78,41.78,0,1,0,41.77,41.77A41.77,41.77,0,0,0,484.14,272.06Z" transform="translate(-89.97 -98.39)"/><circle class="cls-4" cx="398.27" cy="151.56" r="41.77" transform="translate(-114.14 -2.83) rotate(-13.28)"/><path class="cls-4" d="M384.86,235.09a26.72,26.72,0,1,0,36.53,9.71A26.72,26.72,0,0,0,384.86,235.09Z" transform="translate(-89.97 -98.39)"/><path class="cls-4" d="M486.3,225.17a16,16,0,1,0-21.94-5.59A16,16,0,0,0,486.3,225.17Z" transform="translate(-89.97 -98.39)"/><path class="cls-4" d="M294.53,184.18a26.73,26.73,0,1,0,36.53,9.71A26.73,26.73,0,0,0,294.53,184.18Z" transform="translate(-89.97 -98.39)"/><path class="cls-4" d="M316.12,128.18a16,16,0,1,0-21.95-5.59A16,16,0,0,0,316.12,128.18Z" transform="translate(-89.97 -98.39)"/><path class="cls-5" d="M217.61,109.79a41.77,41.77,0,1,0,41.78,41.77A41.77,41.77,0,0,0,217.61,109.79Z" transform="translate(-89.97 -98.39)"/><path class="cls-5" d="M204.2,235.09a26.72,26.72,0,1,0,36.53,9.71A26.73,26.73,0,0,0,204.2,235.09Z" transform="translate(-89.97 -98.39)"/><path class="cls-5" d="M398.27,434.34A41.77,41.77,0,1,0,440,476.11,41.77,41.77,0,0,0,398.27,434.34Z" transform="translate(-89.97 -98.39)"/><path class="cls-5" d="M411.68,392.58a26.73,26.73,0,1,0-36.53-9.71A26.72,26.72,0,0,0,411.68,392.58Z" transform="translate(-89.97 -98.39)"/><path class="cls-5" d="M129.58,197.63a16,16,0,1,0,21.95,5.59A16,16,0,0,0,129.58,197.63Z" transform="translate(-89.97 -98.39)"/><path class="cls-5" d="M491.9,408.1A16,16,0,1,0,486.3,430,16,16,0,0,0,491.9,408.1Z" transform="translate(-89.97 -98.39)"/><path class="cls-5" d="M307.94,273.05a40.79,40.79,0,1,0,40.79,40.78A40.79,40.79,0,0,0,307.94,273.05Z" transform="translate(-89.97 -98.39)"/><path class="cls-6" d="M131.75,272.06a41.78,41.78,0,1,0,41.77,41.77A41.78,41.78,0,0,0,131.75,272.06Z" transform="translate(-89.97 -98.39)"/><path class="cls-6" d="M217.61,434.34a41.77,41.77,0,1,0,41.78,41.77A41.77,41.77,0,0,0,217.61,434.34Z" transform="translate(-89.97 -98.39)"/><path class="cls-6" d="M231,392.58a26.73,26.73,0,1,0-36.52-9.71A26.72,26.72,0,0,0,231,392.58Z" transform="translate(-89.97 -98.39)"/><path class="cls-6" d="M129.58,402.5a16,16,0,1,0,21.95,5.6A16,16,0,0,0,129.58,402.5Z" transform="translate(-89.97 -98.39)"/><path class="cls-6" d="M331.06,407a26.73,26.73,0,1,0-9.71,36.53A26.73,26.73,0,0,0,331.06,407Z" transform="translate(-89.97 -98.39)"/><path class="cls-6" d="M299.77,499.49a16,16,0,1,0,21.94,5.59A16,16,0,0,0,299.77,499.49Z" transform="translate(-89.97 -98.39)"/></svg>