<svg id="Capa_1" data-name="Capa 1" xmlns="http://www.w3.org/2000/svg" viewBox="0 0 417.42 645.19"><defs><style>.cls-1{font-size:126.85px;fill:#12192c;}.cls-1,.cls-3{font-family:Titillium-Bold, Titillium Bold;font-weight:700;}.cls-2{letter-spacing:-0.02em;}.cls-3{font-size:56.86px;}.cls-3,.cls-7{fill:#3e2155;}.cls-4{letter-spacing:0em;}.cls-5{letter-spacing:-0.04em;}.cls-6{fill:#652e81;}</style></defs><text class="cls-1" transform="translate(5.12 570.55)"><tspan class="cls-2">C</tspan><tspan x="70.91" y="0">OMBE</tspan></text><text class="cls-3" transform="translate(68.32 630.97)"><tspan class="cls-4">C</tspan><tspan x="33.21" y="0">ASHF</tspan><tspan class="cls-5" x="160.81" y="0">L</tspan><tspan x="185.43" y="0">OW</tspan></text><path class="cls-6" d="M182.56,350.6c-21.66,36.26-34.35,5.18-56.53,11.51-31.79,9.07-18.11,57.21,13.73,48.13C155,405.89,159.43,390.45,182.56,350.6Z" transform="translate(-99.46 -123.28)"/><path class="cls-7" d="M220.59,394.48c40.71-11.62,23.17-73.27-17.59-61.64-18.09,5.17-23.23,22.57-48.43,66C176.38,364,193.52,402.2,220.59,394.48Z" transform="translate(-99.46 -123.28)"/><path class="cls-6" d="M468.44,218.53a40.19,40.19,0,0,0-28.77-48.11c-51.76-13.65-72.05,64.63-20.31,78,2.72.7,66.38,9.09,69.16,9.46C472.64,253.8,462.7,244.74,468.44,218.53Z" transform="translate(-99.46 -123.28)"/><path class="cls-7" d="M438.77,251.29c6.47,1.46,12.35,4,16.34,9.25,8.75,11.51,2.52,18.37,5.64,29.3,9.07,31.8,57.21,18.1,48.12-13.73C502.61,254.16,477.44,256.45,438.77,251.29Z" transform="translate(-99.46 -123.28)"/><path class="cls-6" d="M416.19,420.35c2.66,34.21-2,86.66,35.63,75.92A25,25,0,0,0,469,465.34C459.8,433.06,420.26,462.48,416.19,420.35Z" transform="translate(-99.46 -123.28)"/><path class="cls-7" d="M411.35,394.77A32.11,32.11,0,0,0,375,380.28c-31.3,8.93-30.87,54,1.22,61.39,24.81,5.69,40.11-4.08,44.1,31.49C419.51,463.11,416.46,403.41,411.35,394.77Z" transform="translate(-99.46 -123.28)"/><path class="cls-6" d="M366.1,169c24.21-16,6.62-52.39-20.43-44.67a25,25,0,0,0-17.19,30.93c2.12,7.42,5.41,8.56,7.59,18.35,4.29,19.14-10.39,24.17-24.43,36.07Z" transform="translate(-99.46 -123.28)"/><path class="cls-7" d="M300.86,231.25c-2.95,54.33,87.21,36.85,58.49-16.63-14.52-21.4-9.48-34.15,6.73-45.59C319.21,204,302,210.27,300.86,231.25Z" transform="translate(-99.46 -123.28)"/><path class="cls-6" d="M205,268.53c11.62,40.71,73.26,23.18,61.63-17.59-2.9-10.15-9.29-15.31-7-26.74,1.92-9.46,11.08-16.09,19.52-20.77C227.06,229.09,196,237,205,268.53Z" transform="translate(-99.46 -123.28)"/><path class="cls-7" d="M270.16,129.76a40.31,40.31,0,0,0-49.26,28.7c-9.25,35.06,34.21,46.81-1.7,74.5l60-29.53C312.36,185.09,304,138.67,270.16,129.76Z" transform="translate(-99.46 -123.28)"/><path class="cls-6" d="M313.17,429.33c-6.45-22.61-34.4-30.88-52-15.12-8.1,7.24-9.56,16.56-20.49,21.06-11.42,4.72-24.06-3.37-35.34-8.82l62.49,40C293.08,479.43,320.78,456,313.17,429.33Z" transform="translate(-99.46 -123.28)"/><path class="cls-7" d="M267.8,466.47c-2.58-1.66-63.39-41-66.36-41.82-51.49-13.57-72.13,64.36-20.55,78C234.62,516.78,220.79,443.24,267.8,466.47Z" transform="translate(-99.46 -123.28)"/><path class="cls-6" d="M129.55,327.42c34.68,9.15,63.34-28.34,44.83-59.75-14.64-24.37-7-36.27,7.49-45.56-52.4,27.2-68.61,31.66-77.5,47.37C92.11,291.15,103.67,320.6,129.55,327.42Z" transform="translate(-99.46 -123.28)"/><path class="cls-7" d="M162.69,176.8a25.15,25.15,0,0,0-15.36,12.57c-6.25,12.1-1,16.8,1.52,29,4.38,20.93-10.91,25.84-28.63,35.77l61.65-32C207.8,207,190.36,168.9,162.69,176.8Z" transform="translate(-99.46 -123.28)"/><path class="cls-6" d="M397.05,280c-31.07,8.87-31.05,53.6.9,61.42,21.95,5.37,36.43-.87,39.05,36.21V306C435.91,288.36,416.36,274.54,397.05,280Z" transform="translate(-99.46 -123.28)"/><path class="cls-7" d="M437,306c0,60.3-8.56,103.12,29.22,113.09,35,9.23,63.25-28.91,44.89-59.66C486.64,318.46,440.64,364.23,437,306Z" transform="translate(-99.46 -123.28)"/><path class="cls-6" d="M326.89,478.18c-20.83,21.94-16.74,38.8-50.51,24.65C333.29,539.76,330.69,538,330.69,538a40.3,40.3,0,0,0,63.44-21.73C404.59,476.57,355.42,448.08,326.89,478.18Z" transform="translate(-99.46 -123.28)"/><path class="cls-7" d="M242.91,532.43c5.09,17.85,28.34,26.14,44,8.31,9.88-13,21.71-18.38,42-3.83l-52.51-34.08C255.67,494.15,237.49,513.44,242.91,532.43Z" transform="translate(-99.46 -123.28)"/><path class="cls-7" d="M345.83,321.35a35.69,35.69,0,1,1-47-18.39A35.69,35.69,0,0,1,345.83,321.35Z" transform="translate(-99.46 -123.28)"/></svg>